# xmcd CD database file
#
# Track frame offsets:
#	150
#	38187
#	80350
#	116590
#	135815
#	175392
#	202752
#	227305
#
# Disc length: 3178 seconds
#
# Revision: 1
# Processed by: cddbd v1.5.1PL2 Copyright (c) Steve Scherf et al.
# Submitted via: CDex 1.51
#
DISCID=540c6808
DTITLE=The Del Ferro - Vaganee Group - Introducing
DYEAR=1993
DGENRE=Jazz
TTITLE0=Secret Update
TTITLE1=Soft and Sensitive
TTITLE2=Talkholes Morning
TTITLE3=Bungs Bungs
TTITLE4=INspired by Phola Mamba
TTITLE5=Cleared for Take Off
TTITLE6=Talkholes Night
TTITLE7=Waltz Two - for Len del Ferro
EXTD=YEAR: 1993
EXTT0=
EXTT1=
EXTT2=
EXTT3=
EXTT4=
EXTT5=
EXTT6=
EXTT7=
PLAYORDER=
